<svg width="70" height="61" viewBox="0 0 70 61" fill="none" xmlns="http://www.w3.org/2000/svg">
<path d="M5.84375 1.12254C3.20312 2.08449 1.35938 4.00841 0.4375 6.76384L0 8.08449V30.666V53.2475L0.4375 54.5682C0.6875 55.2856 1.09375 56.2149 1.375 56.6225C2.98438 59.0682 5.73438 60.666 8.3125 60.666C9.60938 60.666 10 60.3725 10 59.3617C10 58.5138 9.60938 58.1062 8.64062 57.9758C6.54688 57.6986 5.625 57.2747 4.42188 56.003C3.42188 54.9595 2.875 53.8019 2.65625 52.2693C2.5625 51.5519 2.5 44.3128 2.5 33.0628V15.0138H32.1875C61.6719 15.0138 61.875 15.0138 62.1875 14.6878C62.6094 14.2475 62.6094 13.1715 62.1875 12.7312C61.875 12.4051 61.6719 12.4051 32.1875 12.4051H2.5V11.2965C2.5 9.66602 2.78125 8.03558 3.20312 7.07362C4.03125 5.16602 5.90625 3.76384 8.04688 3.43776C9.54688 3.2258 60.4688 3.2258 61.9531 3.43776C63.4375 3.66602 64.5312 4.23667 65.5625 5.29645C66.5781 6.37254 67.125 7.51384 67.3438 9.06276C67.5469 10.6117 67.5469 50.7204 67.3438 52.2693C67.125 53.8182 66.5781 54.9595 65.5625 56.0356C64.5312 57.0954 63.4375 57.666 61.9531 57.8943C61.2656 57.9921 52.7969 58.0573 38.875 58.0573C17.0781 58.0573 16.875 58.0573 16.5625 58.3834C16.1406 58.8236 16.1406 59.8997 16.5625 60.3399C16.875 60.666 17.0781 60.666 39.8594 60.666H62.8281L64.0156 60.2584C66.7031 59.3128 68.625 57.3399 69.5625 54.5682L70 53.2475V30.666V8.08449L69.5625 6.76384C68.6406 4.02471 66.7812 2.08449 64.1562 1.12254L62.8906 0.666016H35H7.10938L5.84375 1.12254Z" fill="#CA3636"/>
<path d="M6.78027 6.43818C6.31152 6.92731 6.24902 7.09035 6.24902 7.84035C6.24902 9.06318 6.95215 9.79688 8.12402 9.79688C9.2959 9.79688 9.99902 9.06318 9.99902 7.84035C9.99902 6.61753 9.2959 5.88383 8.12402 5.88383C7.40527 5.88383 7.24902 5.94905 6.78027 6.43818Z" fill="#CA3636"/>
<path d="M13.0312 6.43818C12.5625 6.92731 12.5 7.09035 12.5 7.84035C12.5 9.06318 13.2031 9.79688 14.375 9.79688C15.0937 9.79688 15.25 9.73166 15.7187 9.24253C16.1875 8.7534 16.25 8.59035 16.25 7.84035C16.25 7.09035 16.1875 6.92731 15.7187 6.43818C15.25 5.94905 15.0937 5.88383 14.375 5.88383C13.6562 5.88383 13.5 5.94905 13.0312 6.43818Z" fill="#CA3636"/>
<path d="M19.2812 6.43818C18.8125 6.92731 18.75 7.09035 18.75 7.84035C18.75 8.59035 18.8125 8.7534 19.2812 9.24253C19.75 9.73166 19.9062 9.79688 20.625 9.79688C21.3437 9.79688 21.5 9.73166 21.9687 9.24253C22.4375 8.7534 22.5 8.59035 22.5 7.84035C22.5 7.09035 22.4375 6.92731 21.9687 6.43818C21.5 5.94905 21.3437 5.88383 20.625 5.88383C19.9062 5.88383 19.75 5.94905 19.2812 6.43818Z" fill="#CA3636"/>
<path d="M45.3125 7.51427C45.1094 7.72622 45 8.05231 45 8.49253C45 8.93274 45.1094 9.25883 45.3125 9.47079C45.6094 9.78057 45.8281 9.79688 53.75 9.79688C61.6719 9.79688 61.8906 9.78057 62.1875 9.47079C62.3906 9.25883 62.5 8.93274 62.5 8.49253C62.5 8.05231 62.3906 7.72622 62.1875 7.51427C61.8906 7.20448 61.6719 7.18818 53.75 7.18818C45.8281 7.18818 45.6094 7.20448 45.3125 7.51427Z" fill="#CA3636"/>
<path d="M32.3752 17.8665C31.094 18.4535 30.1565 19.5459 29.7659 20.9317C29.5627 21.6491 29.5784 22.7578 29.9221 31.5459C30.1252 36.9263 30.3284 41.7524 30.3752 42.2578C30.5002 43.9698 31.469 45.5676 32.8909 46.3665C33.7971 46.8882 36.2034 46.8882 37.1096 46.3665C38.5471 45.5513 39.4846 44.0187 39.6252 42.2089C39.6721 41.6382 39.8752 36.8122 40.0784 31.4806C40.4846 21.3067 40.4846 21.2089 39.8284 19.8883C39.4846 19.1709 38.594 18.323 37.7502 17.9317C36.9221 17.5404 33.2034 17.4915 32.3752 17.8665ZM36.844 20.6383C37.844 21.2578 37.8284 20.8665 37.3909 32.1328C36.9534 43.3339 36.9846 43.1056 35.9534 43.823C35.2815 44.2959 34.719 44.2959 34.0471 43.823C33.0159 43.1056 33.0471 43.3339 32.6096 32.1491C32.3752 26.198 32.2659 21.8285 32.344 21.6002C32.5315 21.0948 33.094 20.573 33.6721 20.3937C34.4221 20.1491 36.2815 20.2959 36.844 20.6383Z" fill="#CA3636"/>
<path d="M33.3594 47.9324C32 48.5845 31.25 49.8889 31.25 51.5682C31.25 52.84 31.6094 53.7041 32.4531 54.4867C33.2812 55.2693 34 55.4976 35.3125 55.4161C36.5781 55.3509 37.4219 54.8454 38.1875 53.6878C38.5781 53.1172 38.6719 52.7911 38.7187 51.8617C38.75 51.2422 38.7031 50.4922 38.5937 50.1498C38.3437 49.3345 37.4219 48.2911 36.6406 47.9324C35.7969 47.5248 34.1875 47.5248 33.3594 47.9324ZM35.75 50.5574C36.25 51.0465 36.2187 51.8943 35.6875 52.3345C35.4531 52.5302 35.1562 52.6769 35 52.6769C34.4687 52.6769 33.9062 52.0411 33.9062 51.4378C33.9062 50.378 35.0156 49.84 35.75 50.5574Z" fill="#CA3636"/>
</svg>
