<svg width="70" height="70" viewBox="0 0 70 70" fill="none" xmlns="http://www.w3.org/2000/svg">
<path d="M30.5608 0.201904C22.63 1.2689 15.8889 4.593 10.2416 10.2426C4.62173 15.8512 1.17594 22.8687 0.205106 30.625C-0.0683687 32.8274 -0.0683687 37.2048 0.205106 39.3388C1.20329 47.1634 4.59438 54.0989 10.1869 59.7075C12.1696 61.691 13.5507 62.8401 15.6564 64.2354C20.3192 67.3406 25.816 69.3241 31.4223 69.8986C33.4323 70.1038 38.56 69.9807 40.4059 69.6798C47.8171 68.4897 54.3805 65.1382 59.6859 59.8306C65.1007 54.4272 68.2867 48.2851 69.613 40.6794C70.0233 38.3539 70.1326 33.1694 69.8181 30.7618C68.7516 22.6635 65.4562 15.9469 59.7543 10.2426C54.107 4.57932 47.2154 1.18682 39.3394 0.188224C37.3293 -0.0716849 32.4751 -0.0580055 30.5608 0.201904ZM38.9702 4.44253C46.6138 5.45481 53.6284 9.29873 58.551 15.1672C63.2958 20.8168 65.7707 27.6155 65.7707 35.0024C65.7707 41.1992 64.0752 46.8625 60.7251 51.9102C54.8864 60.7061 45.4242 65.8085 34.9501 65.7948C26.6638 65.7811 19.1432 62.6485 13.2635 56.7527C7.3428 50.8432 4.23886 43.3469 4.23886 35.0024C4.23886 29.3118 5.64726 24.1136 8.47772 19.3668C14.8223 8.69684 26.8005 2.84204 38.9702 4.44253Z" fill="#82D21C"/>
<path d="M29.7674 10.4888C28.8786 11.0907 28.9197 10.735 28.8513 18.3134C28.7829 25.1121 28.7829 25.2352 28.4821 25.7003C28.318 25.9602 27.9762 26.3022 27.73 26.4527C27.3062 26.7126 26.9643 26.7263 22.493 26.7947C17.256 26.8631 17.3653 26.8494 16.8047 27.7112C16.5586 28.0805 16.5449 28.6824 16.5449 41.1581C16.5449 53.7295 16.5586 54.2356 16.8047 54.6186C16.9415 54.8238 17.2423 55.1248 17.4474 55.2616C17.8303 55.5078 18.3909 55.5215 33.4457 55.5215C48.7056 55.5215 49.0748 55.5215 49.9499 55.2479C51.6181 54.7281 53.0812 53.3191 53.7375 51.5818C54.0657 50.7337 56.8825 33.9627 56.8825 32.8957C56.8825 30.2692 55.1049 27.8206 52.6026 27.0409C51.8779 26.822 51.2489 26.7947 46.4904 26.7947H41.1713L41.1303 20.7347L41.0893 14.6884L40.6244 13.7308C40.0091 12.4723 38.9288 11.3916 37.6709 10.776L36.7137 10.3109L33.432 10.2699C30.4101 10.2425 30.123 10.2562 29.7674 10.4888ZM35.9753 14.7294C36.2351 14.8799 36.5633 15.2219 36.7137 15.4681C36.9735 15.9058 36.9872 16.2341 37.0555 22.8276C37.1239 30.406 37.0829 30.064 37.9717 30.6386C38.3272 30.8848 38.7511 30.8985 44.4394 30.8985C47.7894 30.8985 50.7703 30.9669 51.0711 31.0353C51.6864 31.1721 52.4385 31.8971 52.5889 32.4853C52.6436 32.7042 52.1377 36.1377 51.2626 41.4043C49.7585 50.4875 49.7721 50.4191 48.9107 51.062C48.5278 51.3493 48.4184 51.3493 38.6827 51.3903L28.8513 51.4313V41.0486V30.6523L29.6444 30.2692C30.7109 29.7494 31.8458 28.5867 32.4201 27.4102L32.885 26.4527L32.9261 20.379L32.9671 14.3053L34.2387 14.3737C35.2233 14.4284 35.6335 14.5105 35.9753 14.7294ZM24.7492 41.1581V51.4177H22.6981H20.647V41.1581V30.8985H22.6981H24.7492V41.1581Z" fill="#82D21C"/>
</svg>
