<svg width="70" height="60" viewBox="0 0 70 60" fill="none" xmlns="http://www.w3.org/2000/svg">
<path d="M33.9744 0.0668422C32.8805 0.229972 31.3899 0.977649 30.5832 1.7797C29.7627 2.58176 31.2122 0.243566 14.543 27.7173C4.31454 44.5876 0.526717 50.9497 0.294251 51.643C0.007088 52.4587 -0.0339353 52.7985 0.0207625 53.9676C0.0617858 55.2183 0.116484 55.4222 0.56774 56.3602C1.52495 58.2633 3.32998 59.5684 5.39482 59.8675C6.69389 60.0442 63.3061 60.0442 64.6052 59.8675C66.67 59.5684 68.4751 58.2633 69.4323 56.3602C69.8835 55.4222 69.9382 55.2183 69.9792 53.9676C70.0339 52.7985 69.9929 52.4587 69.7058 51.643C69.4733 50.9497 65.6855 44.5876 55.457 27.7173C38.7605 0.202784 40.2236 2.56816 39.4442 1.7933C38.0494 0.42029 36.0256 -0.218635 33.9744 0.0668422ZM35.8205 4.89276C36.2717 5.16464 34.6855 2.60895 51.4093 30.1643C61.0908 46.1238 65.2752 53.152 65.3163 53.4918C65.3983 54.0899 65.0838 54.7017 64.5368 55.0279C64.1813 55.2319 61.7472 55.2455 35 55.2455C8.25278 55.2455 5.81873 55.2319 5.46319 55.0279C4.91621 54.7017 4.6017 54.0899 4.68375 53.4918C4.72477 53.152 8.90915 46.1238 18.5907 30.1643C35.2598 2.69051 33.7283 5.17824 34.1659 4.90636C34.6308 4.62088 35.3419 4.62088 35.8205 4.89276Z" fill="#EE8525"/>
<path d="M33.4959 18.896C32.7985 19.195 32.1421 19.8883 31.978 20.5137C31.814 21.071 31.8686 23.5044 32.1421 29.2819C32.2242 30.886 32.3336 33.7408 32.3883 35.6303C32.4977 39.4639 32.525 39.559 33.5096 40.0484C34.1933 40.4019 35.6428 40.3747 36.4496 40.0077C37.3658 39.5726 37.5162 39.192 37.5572 37.1665C37.5846 36.2285 37.694 33.3601 37.8034 30.7772C38.1726 21.9682 38.1862 21.071 38.0085 20.5001C37.7897 19.8204 37.2701 19.263 36.5727 18.9367C35.8889 18.6241 34.1933 18.5969 33.4959 18.896Z" fill="#EE8525"/>
<path d="M33.7005 43.4042C31.1844 44.5462 31.1023 48.1486 33.5637 49.3313C34.2064 49.6576 34.4389 49.6983 35.2594 49.644C36.3807 49.5896 37.1054 49.1682 37.8028 48.1894C38.1857 47.6456 38.2131 47.5233 38.2131 46.4357C38.2131 45.389 38.172 45.1851 37.8575 44.7093C37.3926 44.0024 37.1191 43.7713 36.367 43.4314C35.5876 43.078 34.4389 43.0644 33.7005 43.4042Z" fill="#EE8525"/>
</svg>
